<svg xmlns="http://www.w3.org/2000/svg" viewBox="0 0 3205.25 348.48" class="css-pi0yvt"><defs><style>.cls-1{fill:#0655a5;}.cls-2{fill:#0656a5;}</style></defs><g id="Layer_2" data-name="Layer 2"><g id="Layer_1-2" data-name="Layer 1"><rect class="cls-1" x="1906.28" y="104.72" width="17.58" height="160.75"></rect><path class="cls-2" d="M605.38,200.6,597.46,225h83.29l-12.53,38.47H533.76l51.72-157.89H716.65l-12.37,37.76H624.11l-6.77,21.06H684.9L673,200.6ZM368.21,245.48l50.64,50.63-50.64,50.68-50.66-50.68.05,0L196.74,175.2l.14-.12-.1-.1,69.87-72L225.74,63.34,115.8,176.71,227.42,288.36,268.8,247l50.62,50.65-50.89,50.87-49.82-49.84-47.26,47.27-50.61-50.64.07,0L0,174.34l.14-.15,0-.05,119-122.66-.07-.1L168.93,0l51.29,49.79L266,2.59l50.44,49L365.67.84l51.38,49.92-49.87,51.38L325.43,61.61,215.42,175,327.06,286.61ZM170.37,101.2,128.72,60.77,18.7,174.1,130.35,285.72,168.14,248l-71-71.09.09-.1-.09-.07Zm625.75,4.35h-51L693.4,263.44h125l13.7-41.95h-74Zm-229.39,0H413L399.38,147h52.15l-38.18,116.4h51L502.5,147h50.59Zm757.58,0L1300,180a121.9,121.9,0,0,0-4.7,18.92l-.38,2.65-2.74-12.32c-.25-1.75-.39-3.53-.53-5.36a20.64,20.64,0,0,0-1-4.94l-22.09-73.35h-48.4l-51.72,157.89h48.36l24.1-74a120,120,0,0,0,4.66-18.92l.43-2.6c.67,3,1.25,5.89,1.77,8.55,1.54,8.93,2.41,13.62,2.46,14.05l22.42,72.92H1321l51.76-157.89Zm402.07,157.89.29-20.87h-59.16L1654,263.44h-41.53l-2.89-7.69,106.75-150.2H1768l9,157.89Zm1.2-54.07L1726,154.72l-37.3,54.65Zm-71.36-103.82h-61.37l-71.35,52.24,17.09-52.24h-50.42l-51.72,157.89h50.32l16.53-50.31,21.22-13,23.19,63.27h54.36l5.47-7.69-34.62-92Zm-483.32,70c-.57,2.09-1.49,5.09-2.88,9-8.54,25.62-22.76,45.86-42.4,60.72s-42.4,22.26-68.33,22.26q-33.29,0-49.32-17.27t-11.43-47.25a112.75,112.75,0,0,1,4.61-18.46q12.61-37.78,42.6-60.53t68.14-22.69q33.34,0,49.36,17c10.76,11.31,14.55,27,11.48,47.06-.72,4.71-1.34,8.07-1.83,10.13m-50.18-6.38c1.3-8.65.58-15.2-2.3-19.76-3.41-5.53-9.9-8.33-19.45-8.33a39.44,39.44,0,0,0-30.3,13.2q-9.51,10.51-16.13,30.28c-.82,2.5-1.59,5-2.26,7.68a71,71,0,0,0-1.59,7.68c-1.34,8.65-.62,15.22,2.26,19.79,3.41,5.52,9.94,8.31,19.5,8.31a39.26,39.26,0,0,0,30-13.11q9.8-10.6,16.33-30.35a97.73,97.73,0,0,0,3.93-15.39m282.69-63.65-51.76,157.89h52.15l51.76-157.89Zm-387.8,0H863.94L850.26,147h52.15l-38.15,116.4h51L953.41,147H1004Z"></path><path class="cls-2" d="M2052.22,266.26V104.37h111v27.39h-78.29v38.32h67.58v27.38h-67.58v68.8Z"></path><path class="cls-2" d="M2183.52,186.31q0-24.74,7.4-41.52a76.08,76.08,0,0,1,15.08-22.2A63.16,63.16,0,0,1,2226.92,108q15.14-6.41,34.9-6.4,35.79,0,57.26,22.19t21.48,61.74q0,39.19-21.31,61.34t-57,22.14q-36.11,0-57.42-22T2183.52,186.31Zm33.69-1.1q0,27.49,12.7,41.68t32.24,14.19q19.54,0,32.08-14.08t12.54-42.24q0-27.82-12.2-41.52t-32.42-13.69q-20.21,0-32.58,13.86T2217.21,185.21Z"></path><path class="cls-2" d="M2402.51,266.26V131.76h-48V104.37h128.65v27.39H2435.2v134.5Z"></path><path class="cls-2" d="M2633.43,266.26h-35.56l-14.14-36.77H2519l-13.36,36.77H2471L2534,104.37h34.57Zm-60.19-64-22.3-60.07-21.87,60.07Z"></path><path class="cls-2" d="M2728.18,266.26l-38.65-161.89H2723l24.41,111.2L2777,104.37h38.88l28.38,113.08,24.84-113.08H2902l-39.31,161.89H2828l-32.24-121-32.14,121Z"></path><path class="cls-2" d="M2918.68,266.26V104.37h120v27.39h-87.35v35.89h81.28v27.27h-81.28V239h90.44v27.27Z"></path><path class="cls-2" d="M3069.64,104.37h64.71q19.21,0,28.66,1.6a42.22,42.22,0,0,1,16.9,6.68,41.57,41.57,0,0,1,12.42,13.53,36.66,36.66,0,0,1,5,18.94,38.39,38.39,0,0,1-22.75,35.12q14.8,4.31,22.75,14.68a39,39,0,0,1,7.95,24.41,48.18,48.18,0,0,1-5.13,21.48,43.2,43.2,0,0,1-14,16.67q-8.9,6.24-21.92,7.68-8.18.88-39.42,1.1h-55.11Zm32.69,26.94v37.44h21.42q19.11,0,23.74-.55,8.4-1,13.2-5.8t4.81-12.64q0-7.51-4.15-12.21T3149,131.87q-4.86-.56-27.94-.56Zm0,64.39V239h30.26q17.67,0,22.41-1a20.24,20.24,0,0,0,11.88-6.46q4.57-5.13,4.58-13.75a21.17,21.17,0,0,0-3.53-12.37,20.08,20.08,0,0,0-10.22-7.4q-6.69-2.31-29-2.31Z"></path></g></g></svg>